<?xml version="1.0" encoding="UTF-8"?>
<svg version="1.1" xmlns="http://www.w3.org/2000/svg" width="1350" height="1350">
<path d="M0 0 C8.58 0 17.16 0 26 0 C28.64 3.3 31.28 6.6 34 10 C35.47498113 11.81590775 36.95322899 13.62917762 38.4375 15.4375 C39.18902344 16.35402344 39.94054687 17.27054688 40.71484375 18.21484375 C41.46894531 19.13394531 42.22304688 20.05304687 43 21 C44.50028317 22.83310162 46.00028408 24.66643427 47.5 26.5 C48.2425 27.4075 48.985 28.315 49.75 29.25 C53.125 33.375 53.125 33.375 56.5 37.5 C57.24894531 38.41523437 57.99789062 39.33046875 58.76953125 40.2734375 C60.20499935 42.02817784 61.63993796 43.78335155 63.07421875 45.5390625 C66.57572243 49.82371211 70.08301826 54.102969 73.609375 58.3671875 C74.24077393 59.13144043 74.87217285 59.89569336 75.52270508 60.68310547 C76.78176049 62.2065577 78.04198147 63.72904752 79.3034668 65.25048828 C79.88265869 65.95157715 80.46185059 66.65266602 81.05859375 67.375 C81.57736084 68.00148438 82.09612793 68.62796875 82.63061523 69.2734375 C83.83294965 70.78937778 84.92673281 72.39009922 86 74 C86.33 49.58 86.66 25.16 87 0 C96.57 0 106.14 0 116 0 C116 41.91 116 83.82 116 127 C91 127 91 127 84.4375 121.125 C82.046875 117.4921875 82.046875 117.4921875 80.99414062 115.67480469 C79.61002675 113.34302149 77.92607817 111.32623591 76.1875 109.25 C75.56101562 108.45980469 74.93453125 107.66960937 74.2890625 106.85546875 C69.46231445 100.83438885 64.52103811 94.90585415 59.60986328 88.95361328 C57.56681111 86.47431339 55.532288 83.9881283 53.5 81.5 C48.97445113 75.96025091 44.42396662 70.44112675 39.87109375 64.92382812 C39.29875 64.22966797 38.72640625 63.53550781 38.13671875 62.8203125 C37.62842529 62.20430176 37.12013184 61.58829102 36.59643555 60.95361328 C34.71374544 58.64970042 32.85866845 56.32333556 31 54 C30.67 78.09 30.34 102.18 30 127 C20.1 127 10.2 127 0 127 C0 85.09 0 43.18 0 0 Z " fill="#FCFAFA" transform="translate(643,526)"/>
<path d="M0 0 C14.53784916 14.69896126 19.44133855 30.649896 19.39892578 50.83398438 C19.27238903 59.02289099 18.42840913 65.74711728 15.03100586 73.27709961 C14.6687793 74.14850586 14.30655273 75.01991211 13.93334961 75.91772461 C7.04384893 91.14468881 -6.29607302 103.07704452 -21.87426758 109.00170898 C-41.94016198 115.70753488 -63.68865426 115.38507062 -83.09399414 106.71459961 C-98.85179654 98.83569841 -109.81821687 87.29622584 -116.34399414 70.77709961 C-122.07013294 53.37065114 -121.44981386 34.39791309 -113.34399414 17.90209961 C-109.8248663 11.10549727 -105.51085244 5.58187306 -99.96899414 0.27709961 C-99.37989258 -0.34293945 -98.79079102 -0.96297852 -98.18383789 -1.60180664 C-72.80355368 -26.53584409 -24.86027969 -23.86867804 0 0 Z M-78.37524414 18.49194336 C-86.63436751 27.74297125 -89.62176431 38.48815232 -89.31665039 50.67944336 C-88.07764156 63.5010965 -82.84285526 72.57762419 -73.11743164 80.73803711 C-63.97323018 87.28861052 -53.93137493 88.08655811 -42.96899414 87.27709961 C-32.08000512 85.11493193 -23.61371943 79.54241572 -17.25024414 70.45678711 C-11.32354522 60.37417126 -9.43493061 49.49459915 -11.58227539 37.99194336 C-14.79247748 26.12692331 -20.71608666 17.93903386 -31.25805664 11.61694336 C-46.87657124 3.89770632 -65.5818972 6.69430503 -78.37524414 18.49194336 Z " fill="#FCFAFA" transform="translate(350.968994140625,541.722900390625)"/>
<path d="M0 0 C31.68 0 63.36 0 96 0 C96 7.92 96 15.84 96 24 C74.22 24 52.44 24 30 24 C30 32.58 30 41.16 30 50 C49.14 50 68.28 50 88 50 C88 57.92 88 65.84 88 74 C68.86 74 49.72 74 30 74 C30 83.24 30 92.48 30 102 C52.44 102 74.88 102 98 102 C98 110.25 98 118.5 98 127 C65.66 127 33.32 127 0 127 C0 85.09 0 43.18 0 0 Z " fill="#FCFAFA" transform="translate(522,526)"/>
<path d="M0 0 C11.075625 -0.0825 22.15125 -0.165 33.5625 -0.25 C37.0282251 -0.28641602 40.4939502 -0.32283203 44.06469727 -0.36035156 C48.37683105 -0.37841797 48.37683105 -0.37841797 50.41099548 -0.3817749 C51.79788892 -0.38782005 53.18476466 -0.40167961 54.57151794 -0.42230225 C70.87470414 -0.65211182 86.812482 2.2570591 99.3125 13.625 C108.78092945 23.77391205 111.48164104 35.77810186 111.2421875 49.1875 C110.47101882 61.32718762 106.15056437 71.47439514 97.1875 79.875 C85.84959472 89.00649212 71.94424176 92.19916589 57.66015625 92.09765625 C56.9791687 92.09664917 56.29818115 92.09564209 55.59655762 92.09460449 C53.08518762 92.08942526 50.57384188 92.07546458 48.0625 92.0625 C42.431875 92.041875 36.80125 92.02125 31 92 C31 103.55 31 115.1 31 127 C20.77 127 10.54 127 0 127 C0 85.09 0 43.18 0 0 Z M31 24 C31 38.19 31 52.38 31 67 C35.929375 67.061875 40.85875 67.12375 45.9375 67.1875 C47.47398193 67.21481201 49.01046387 67.24212402 50.59350586 67.27026367 C59.17281269 67.32225947 66.31920026 66.80847984 73.8125 62.3125 C78.47693591 57.3815249 80.25078892 52.80604065 80.5 46 C80.26277947 39.72947068 78.85853134 35.13956673 74.609375 30.47265625 C66.05250941 22.70392301 53.78137182 23.85785205 43 23.9375 C39.04 23.958125 35.08 23.97875 31 24 Z " fill="#FCFAFA" transform="translate(391,526)"/>
<path d="M0 0 C9.03051695 8.04063336 14.22059895 19.64718736 15.21484375 31.578125 C15.65083973 43.7860124 12.00665198 57.28018282 3.625 66.5 C-7.20108746 76.4933115 -19.06238633 81.40483629 -33.75390625 81.20703125 C-46.2520173 80.40991947 -57.13920509 75.37418572 -65.875 66.375 C-75.65079596 54.76846407 -78.25253029 41.77146058 -77 27 C-74.63152946 13.90207256 -67.66640074 3.82551296 -57 -4 C-38.36490585 -15.37203727 -17.0948454 -13.17276853 0 0 Z " fill="#00DEA6" transform="translate(1103,572)"/>
<path d="M0 0 C9.414355 8.38239686 14.12006016 20.08067817 15.21484375 32.421875 C15.7754187 46.5035178 10.59503743 57.56924608 1.31640625 67.703125 C-7.72063343 76.66396705 -18.20118282 80.91890883 -30.8125 81.3125 C-45.42534965 81.01503741 -56.95191845 75.44621308 -67 65 C-75.99277645 54.46845958 -78.21947874 41.43234866 -77.22314453 27.98339844 C-75.82892358 15.59100129 -68.73432332 5.61977473 -59.390625 -2.24609375 C-40.91715983 -15.79933862 -17.69429877 -13.63468908 0 0 Z " fill="#00DEA6" transform="translate(878,572)"/>
<path d="M0 0 C10.1917435 7.77616793 16.70982251 17.31409054 19.6875 29.8125 C21.18553622 43.71480519 19.24656583 56.13869849 10.66015625 67.49609375 C2.51534769 77.06019568 -7.69183215 83.31548503 -20.3125 84.8125 C-33.98057703 85.86533675 -46.01285058 82.55819436 -56.4375 73.625 C-65.1963515 65.40350135 -71.42618861 54.99928158 -72.3125 42.8125 C-72.3640625 42.14992188 -72.415625 41.48734375 -72.46875 40.8046875 C-72.98435641 28.81683855 -68.65359192 16.9308227 -61.1875 7.625 C-45.4622744 -9.15083335 -19.29549986 -12.64796485 0 0 Z " fill="#00DEA6" transform="translate(985.3125,568.1875)"/>
<path d="M0 0 C19 0 19 0 24 4.125 C25.37678057 6.05303591 26.70726206 8.01463458 28 10 C29.27929284 11.68844291 30.59456116 13.34391265 31.91601562 14.99951172 C33.33150876 16.77382742 34.72236847 18.56575342 36.11328125 20.359375 C39.43913009 24.60031419 42.96453512 28.65788935 46.49902344 32.72485352 C50.64049746 37.51672536 54.57187041 42.45287011 58.43554688 47.47070312 C60.51502205 50.16234549 62.58712025 52.58712025 65 55 C65.33 36.85 65.66 18.7 66 0 C73.59 0 81.18 0 89 0 C89 32.01 89 64.02 89 97 C69 97 69 97 62.25 90.625 C60.58959961 88.5168457 60.58959961 88.5168457 59.46484375 86.73828125 C57.41130147 83.60309618 55.20686352 80.7016053 52.8125 77.8125 C52.18214844 77.01585937 51.55179688 76.21921875 50.90234375 75.3984375 C46.14964552 69.40632926 41.26045447 63.52269675 36.38671875 57.62890625 C35.44046631 56.4833728 35.44046631 56.4833728 34.47509766 55.31469727 C33.21692124 53.79200508 31.95751462 52.27032842 30.69677734 50.74975586 C30.11750488 50.04858643 29.53823242 49.34741699 28.94140625 48.625 C28.42263916 47.99851562 27.90387207 47.37203125 27.36938477 46.7265625 C26.16705035 45.21062222 25.07326719 43.60990078 24 42 C23.67 60.15 23.34 78.3 23 97 C15.41 97 7.82 97 0 97 C0 64.99 0 32.98 0 0 Z " fill="#FCFAFA" transform="translate(1027,718)"/>
<path d="M0 0 C8.641875 -0.061875 17.28375 -0.12375 26.1875 -0.1875 C28.88832764 -0.21481201 31.58915527 -0.24212402 34.37182617 -0.27026367 C36.55386918 -0.2790396 38.73591716 -0.2866809 40.91796875 -0.29296875 C42.01741821 -0.30831665 43.11686768 -0.32366455 44.24963379 -0.33947754 C59.86456578 -0.34464862 74.56013169 3.8393936 86.03515625 14.81640625 C95.6180578 25.46619147 98.96615086 38.81266222 98.3828125 52.84765625 C97.51196974 64.74643546 92.57930809 75.87878233 84 84.1875 C71.6471161 94.47461447 58.52858089 97.3330537 42.87109375 97.1953125 C41.7792981 97.19329834 40.68750244 97.19128418 39.56262207 97.18920898 C35.5208714 97.17881924 31.47918106 97.15089719 27.4375 97.125 C18.383125 97.08375 9.32875 97.0425 0 97 C0 64.99 0 32.98 0 0 Z M23 19 C23 38.47 23 57.94 23 78 C46.66063276 79.50738276 46.66063276 79.50738276 66.58984375 69.46875 C73.64839288 61.87520081 74.52816485 54.6817332 74.27734375 44.55859375 C73.62436937 36.18028864 70.24671518 30.62204366 64 25 C51.74611657 16.7163748 37.36472542 19 23 19 Z " fill="#FCFAFA" transform="translate(234,718)"/>
<path d="M0 0 C9.84821681 8.11812466 15.19781622 19.01001488 18.25 31.21875 C19.49788519 46.19337233 17.24099019 60.31030406 7.40234375 72.125 C-2.61708485 83.15254359 -15.38416512 89.28085143 -30.25 90.53515625 C-45.90134226 91.21690894 -60.50016564 87.37115733 -72.8046875 77.33984375 C-83.07803863 67.74492146 -87.26863668 55.89978917 -88.84765625 42.203125 C-89.31266857 28.37406306 -84.48100492 15.97164787 -75.75 5.40625 C-56.45041089 -15.14084106 -22.20666005 -15.82224528 0 0 Z M-57.625 19.34375 C-63.39286056 26.50803996 -65.21110352 33.92361792 -64.87890625 43.04296875 C-63.84256222 51.72902747 -59.93323918 58.36788826 -53.5 64.21875 C-46.4118538 69.4994975 -38.17008491 71.24257169 -29.5 70.21875 C-20.78254325 68.01630631 -14.63844733 63.18310452 -9.125 56.21875 C-4.79894872 48.23219379 -4.07343666 39.30086437 -6.15234375 30.4375 C-9.51298132 21.09117747 -15.16530218 15.3253568 -24.0703125 11.12890625 C-36.15701695 6.60125008 -48.88054947 10.07724272 -57.625 19.34375 Z " fill="#FCFAFA" transform="translate(992.5,726.78125)"/>
<path d="M0 0 C7.92 0 15.84 0 24 0 C24.0093457 1.86132568 24.01869141 3.72265137 24.02832031 5.64038086 C24.06397139 11.8192032 24.11784724 17.99766114 24.18390274 24.17623043 C24.22326026 27.91901737 24.25550555 31.66157317 24.27099609 35.40454102 C24.28624091 39.02288032 24.32082211 42.64058371 24.36830902 46.25863838 C24.3830429 47.63273118 24.39103639 49.00691482 24.39188385 50.38108635 C24.40319003 59.52909149 24.72100782 67.60840276 31.375 74.4375 C37.70510579 78.20542011 44.00489118 79.06526514 51.1796875 77.53515625 C56.40776982 75.86808849 58.9667219 73.54991714 62 69 C65.63855107 60.63133254 65.18755857 51.1443351 65.31640625 42.1875 C65.3475779 40.37330566 65.3475779 40.37330566 65.37937927 38.52246094 C65.44445043 34.6816951 65.50356152 30.84086436 65.5625 27 C65.60572561 24.3867122 65.64934116 21.77343082 65.69335938 19.16015625 C65.80008807 12.77350299 65.90147371 6.38678485 66 0 C73.59 0 81.18 0 89 0 C89.04550422 7.33773062 89.08206 14.67538184 89.10362434 22.0132246 C89.11398333 25.42187504 89.12799485 28.83042248 89.15087891 32.23901367 C89.177124 36.17365205 89.18653784 40.10825131 89.1953125 44.04296875 C89.20563507 45.24455124 89.21595764 46.44613373 89.22659302 47.68412781 C89.22856221 62.80840075 87.49457072 76.4827565 77 88 C66.80899706 97.69825115 53.64610486 99.43618967 40.109375 99.2109375 C28.07622738 98.7601119 17.91898796 94.45586735 9.625 85.6875 C0.01567842 74.06332067 -0.31524744 60.23221896 -0.1953125 45.703125 C-0.19106766 43.73095001 -0.19106766 43.73095001 -0.18673706 41.71893311 C-0.1791939 38.26664257 -0.15962872 34.81452722 -0.1373291 31.36230469 C-0.11666674 27.82228971 -0.10769229 24.28224572 -0.09765625 20.7421875 C-0.07637137 13.8280469 -0.04126843 6.91404996 0 0 Z " fill="#FCFAFA" transform="translate(580,718)"/>
<path d="M0 0 C-0.60875755 4.60416626 -1.84722956 8.56483324 -3.5625 12.875 C-4.01753906 14.02742187 -4.47257812 15.17984375 -4.94140625 16.3671875 C-5.46541016 17.67042969 -5.46541016 17.67042969 -6 19 C-9.86991212 17.73089647 -13.69057493 16.37698103 -17.5 14.9375 C-25.84010639 11.91799984 -34.84213506 10.28908434 -43.4375 13.3125 C-47.01934273 15.00916235 -49.19381875 16.27246875 -50.875 19.875 C-51.07497908 23.27464432 -50.25300747 24.42513432 -48 27 C-40.33576046 30.89911979 -31.88125303 32.67996351 -23.56640625 34.62304688 C-15.36302915 36.64361023 -6.46256676 39.1933223 -1 46.0625 C-0.46375 46.71347656 0.0725 47.36445312 0.625 48.03515625 C5.23510962 54.62289812 4.93396344 62.21827117 4 70 C1.69460338 78.31015061 -3.80123666 84.00648826 -11.1640625 88.24609375 C-27.38350757 96.06925365 -47.82378724 94.4665128 -64.45703125 88.828125 C-69.85672831 86.71264514 -72.79826644 85.20173356 -77 81 C-74.69 75.72 -72.38 70.44 -70 65 C-65.90323342 65 -64.490467 65.53863282 -60.9375 67.3125 C-49.84893272 72.4754308 -37.29436881 75.81887152 -25.25 71.6875 C-21.80523214 70.23091085 -21.80523214 70.23091085 -20 67 C-19.41654524 64.04253508 -19.41654524 64.04253508 -20 61 C-23.52510295 57.56756707 -26.68025922 56.24396552 -31.41015625 55.0703125 C-32.64830078 54.74933594 -33.88644531 54.42835938 -35.16210938 54.09765625 C-36.46184665 53.77186588 -37.76198018 53.44765239 -39.0625 53.125 C-64.19372159 46.87754543 -64.19372159 46.87754543 -70.88671875 37.9140625 C-75.34291541 30.2525314 -76.0266872 22.59037862 -74 14.0625 C-71.26015308 5.84295923 -65.76163611 0.62843147 -58.25 -3.4375 C-40.07791348 -11.66852037 -17.31471409 -9.28098022 0 0 Z " fill="#FCFAFA" transform="translate(462,724)"/>
<path d="M0 0 C-0.6901558 4.12542568 -1.94887848 7.8451293 -3.4375 11.75 C-3.86933594 12.89984375 -4.30117188 14.0496875 -4.74609375 15.234375 C-6 18 -6 18 -8 19 C-9.88340171 18.30364086 -11.73367282 17.51666175 -13.5625 16.6875 C-24.25484556 12.09960441 -34.92087187 9.80293509 -46.14453125 14.09375 C-48.75376278 15.36815361 -49.93574408 16.26334192 -51 19 C-51.40814405 22.56191578 -51.40814405 22.56191578 -50 26 C-42.56942338 30.55222453 -34.29980576 32.15974301 -25.90625 34.1796875 C-15.99364504 36.69274228 -5.72481829 39.8856792 0.9140625 48.09375 C4.67286058 54.69192792 4.71709706 61.6165562 4 69 C1.70774052 77.35125886 -3.39727775 83.54656298 -10.8203125 87.90234375 C-26.01632038 95.55481367 -45.02248472 94.52666446 -61 90 C-66.81383217 87.97008572 -72.17579507 85.88647891 -77 82 C-75.06375702 75.79522136 -72.74390859 69.89174281 -70 64 C-66.58067874 65.02579638 -63.49720762 66.23269626 -60.375 67.9375 C-50.33434231 73.01487804 -38.46064405 74.75838687 -27.40625 72.4609375 C-24.53539681 71.51438808 -22.42630708 70.49451621 -20.4375 68.1875 C-19.76023325 64.80116627 -19.66504999 63.27062752 -21 60 C-27.1977872 54.87811229 -35.90805088 53.68073203 -43.52368164 51.87036133 C-55.28558129 49.0385687 -65.61880757 45.46423466 -72.9375 35.3125 C-75.93288368 28.79313552 -76.05268439 21.09631536 -74.28125 14.203125 C-70.85844659 5.09405141 -65.75676707 0.00757581 -57 -4 C-38.27174475 -11.54767478 -17.87493387 -8.42152378 0 0 Z " fill="#FCFAFA" transform="translate(759,724)"/>
<path d="M0 0 C1.46875 1.61328125 1.46875 1.61328125 2 4 C1.19253327 6.89996351 -0.07371809 9.54218544 -1.375 12.25 C-1.71789062 12.99507812 -2.06078125 13.74015625 -2.4140625 14.5078125 C-3.26202932 16.34507395 -4.12920239 18.17344891 -5 20 C-6.16917969 19.57847656 -7.33835937 19.15695312 -8.54296875 18.72265625 C-10.09108079 18.16908891 -11.63926151 17.61571359 -13.1875 17.0625 C-14.34088867 16.64581055 -14.34088867 16.64581055 -15.51757812 16.22070312 C-25.17142082 12.78178062 -34.30915878 11.3336784 -44.14453125 15.09375 C-46.75376278 16.36815361 -47.93574408 17.26334192 -49 20 C-49.40814405 23.56191578 -49.40814405 23.56191578 -48 27 C-40.56942338 31.55222453 -32.29980576 33.15974301 -23.90625 35.1796875 C-13.74600673 37.75552382 -2.96825475 40.82641684 2.953125 50.07421875 C6.66366287 56.89994699 7.13943825 64.10330017 5.3828125 71.65234375 C2.36754878 80.31122054 -3.18452259 85.90140205 -11.375 89.875 C-28.66687095 96.89096403 -48.56654252 95.36081952 -65.6875 88.5 C-69.16168167 87.00076808 -72.0516789 85.37522824 -75 83 C-74.35534798 78.66695924 -72.81074878 75.13327935 -70.9375 71.1875 C-70.38964844 70.02605469 -69.84179688 68.86460937 -69.27734375 67.66796875 C-68.85582031 66.78753906 -68.43429687 65.90710938 -68 65 C-65.38102975 66.03229484 -62.78403285 67.09410859 -60.203125 68.21875 C-49.15331438 73.01284773 -35.73522034 77.38239453 -23.8125 72.75 C-20.18530145 70.50948195 -20.18530145 70.50948195 -18 67 C-17.43481066 63.96283646 -17.43481066 63.96283646 -19 61 C-25.20749248 55.88260376 -33.90263211 54.68202017 -41.52368164 52.87036133 C-53.35187189 50.02260859 -64.79091583 46.33976178 -71.5 35.4375 C-74.32251705 28.96083141 -74.09455898 21.03289377 -72.26953125 14.30859375 C-68.96836694 6.34537699 -63.70722303 0.77304821 -56 -3 C-39.78518124 -9.12503342 -15.2771829 -9.73674533 0 0 Z " fill="#FCFAFA" transform="translate(845,723)"/>
<path d="M0 0 C2.4405304 2.17733594 4.82439678 4.39087366 7.1640625 6.67578125 C2.61606625 12.27331509 -2.35925598 16.99017595 -7.8359375 21.67578125 C-8.23683594 21.2890625 -8.63773438 20.90234375 -9.05078125 20.50390625 C-15.74782139 14.3687493 -22.90910444 11.1499279 -31.9609375 10.42578125 C-40.69925124 10.98954343 -48.65462539 13.21350041 -54.8359375 19.67578125 C-60.91039792 28.0436604 -62.45605701 36.27950953 -61.43359375 46.421875 C-60.09863459 53.68998599 -56.83776373 59.90653269 -50.90625 64.42578125 C-43.42782802 68.9410549 -35.51877052 70.92871531 -26.8359375 69.67578125 C-20.98546404 68.03998553 -16.42372863 65.69009849 -11.8359375 61.67578125 C-11.1759375 61.67578125 -10.5159375 61.67578125 -9.8359375 61.67578125 C-9.8359375 61.01578125 -9.8359375 60.35578125 -9.8359375 59.67578125 C-4.45099822 59.98549019 -2.01126346 63.03008232 1.4765625 66.73828125 C2.02634766 67.30611328 2.57613281 67.87394531 3.14257812 68.45898438 C4.49233615 69.8556905 5.82947775 71.26456962 7.1640625 72.67578125 C-1.20564333 83.75998627 -12.33487721 88.75022019 -25.8359375 90.67578125 C-40.44696423 92.27550315 -54.86703222 89.46146704 -66.8359375 80.67578125 C-67.54234375 80.16273438 -68.24875 79.6496875 -68.9765625 79.12109375 C-77.77842136 72.09976359 -83.78994235 61.71689118 -85.8359375 50.67578125 C-87.36225693 35.12535832 -85.5561406 21.33340836 -75.8359375 8.67578125 C-74.9696875 7.37640625 -74.9696875 7.37640625 -74.0859375 6.05078125 C-55.81052016 -13.23993706 -20.93740985 -17.15944746 0 0 Z " fill="#FCFAFA" transform="translate(560.8359375,726.32421875)"/>
<path d="M0 0 C7.92 0 15.84 0 24 0 C24 32.01 24 64.02 24 97 C16.08 97 8.16 97 0 97 C0 64.99 0 32.98 0 0 Z " fill="#FCFAFA" transform="translate(865,718)"/>
<path d="M0 0 C7.59 0 15.18 0 23 0 C23 32.01 23 64.02 23 97 C15.41 97 7.82 97 0 97 C0 64.99 0 32.98 0 0 Z " fill="#FCFAFA" transform="translate(348,718)"/>
</svg>
